<svg width="28" height="27" viewBox="0 0 28 27" fill="none" xmlns="http://www.w3.org/2000/svg">
<path d="M9.48697 13.4998L12.322 16.2776L17.9921 10.722" stroke="#72AEC8" stroke-width="2" stroke-linecap="round" stroke-linejoin="round"/>
<path d="M13.7395 1C17.0506 3.87024 21.3722 5.36468 25.7885 5.16667C26.4315 7.30974 26.6283 9.55759 26.3671 11.7766C26.1059 13.9957 25.3921 16.1407 24.2681 18.0841C23.1441 20.0275 21.6329 21.7297 19.8242 23.0896C18.0155 24.4494 15.9463 25.4392 13.7395 26C11.5327 25.4392 9.46353 24.4494 7.65485 23.0896C5.84618 21.7297 4.33495 20.0275 3.21097 18.0841C2.08699 16.1407 1.3732 13.9957 1.11201 11.7766C0.850813 9.55759 1.04755 7.30974 1.69053 5.16667C6.10689 5.36468 10.4284 3.87024 13.7395 1" stroke="#72AEC8" stroke-width="2" stroke-linecap="round" stroke-linejoin="round"/>
</svg>
