<svg xmlns="http://www.w3.org/2000/svg" xmlns:xlink="http://www.w3.org/1999/xlink"><symbol fill="currentColor" id="sprite-account" viewBox="0 0 15 16"><path d="M10.007 1.145C9.323.407 8.367 0 7.313 0c-1.06 0-2.02.404-2.7 1.138-.689.743-1.024 1.751-.945 2.84.156 2.149 1.79 3.897 3.645 3.897 1.853 0 3.486-1.748 3.644-3.896.08-1.08-.257-2.086-.95-2.834M13.5 15.75H1.125a1.09 1.09 0 0 1-.85-.391 1.24 1.24 0 0 1-.253-1.024c.297-1.646 1.223-3.028 2.678-4C3.993 9.476 5.631 9 7.313 9c1.681 0 3.32.475 4.612 1.336 1.456.97 2.382 2.353 2.678 3.999a1.24 1.24 0 0 1-.252 1.023 1.09 1.09 0 0 1-.85.392"/></symbol><use xlink:href="#sprite-account" width="15" height="16" y="0"/><view id="sprite-account-view" viewBox="0 0 15 16"/><symbol fill="currentColor" id="sprite-b-dhl" viewBox="0 0 60 9"><path d="M22.313 8.484h5.503l2.09-2.83h-5.503zM0 6.77v.6h7.669l.44-.6zm16.21-1.116c-.816 0-.563-.337-.432-.515.263-.357.713-.976.975-1.322.263-.347.263-.553-.262-.553h-4.782l-3.853 5.23h9.385c3.103 0 4.828-2.109 5.362-2.84zm29.765-.647L49.659 0h-5.83l-3.685 5.006zm-37.04.647H0v.6h8.494zM19.34 3.16c-.263.357-.704.975-.966 1.332-.131.187-.384.515.431.515h4.275s.685-.937 1.266-1.725C25.134 2.212 24.413 0 21.609 0H10.556L8.644 2.606h10.443c.526 0 .516.207.254.553M0 8.484h6.853l.44-.6H0zm30.281 0h5.503l2.091-2.83h-5.503c-.01 0-2.09 2.83-2.09 2.83m20.813.01H60v-.6h-8.466zm2.09-2.84-.44.6H60v-.6zM51.92 7.368H60v-.6h-7.64zM36.525 0l-2.11 2.869H31.96L34.07 0h-5.503L24.88 5.006h13.463L42.028 0zm3.14 5.653s-.402.553-.6.816c-.693.937-.084 2.025 2.176 2.025h8.84l2.09-2.84z"/></symbol><use xlink:href="#sprite-b-dhl" width="60" height="9" y="16"/><view id="sprite-b-dhl-view" viewBox="0 16 60 9"/><symbol fill="currentColor" id="sprite-b-post" viewBox="0 0 32 16"><path d="M11.567 9.863a3.65 3.65 0 0 0 2.99 1.604 4 4 0 0 0 .34.014 4 4 0 0 0 2.514-.884l.016-.014a5 5 0 0 0 .6-.62 29 29 0 0 0 1.148-1.45A62 62 0 0 0 21.021 5.9a61 61 0 0 0 1.09-1.686 41 41 0 0 0 1.425-2.458l.001-.001a24 24 0 0 0 .25-.485h7.588a.5.5 0 0 0 0-1h-7.9a.5.5 0 0 0-.457.298 23 23 0 0 1-.364.718 40 40 0 0 1-1.39 2.396v.002a60 60 0 0 1-1.074 1.66 61 61 0 0 1-1.817 2.572v.001a28 28 0 0 1-1.113 1.404l-.006.007a4 4 0 0 1-.478.496 3 3 0 0 1-1.88.657 3 3 0 0 1-.27-.012l-.044-.002a2.645 2.645 0 0 1-2.625-2.362 3 3 0 0 1-.013-.163l-.003-.12a2.7 2.7 0 0 1 .19-.981 2.65 2.65 0 0 1 1.887-1.603 2.65 2.65 0 0 1 1.277.035 2.65 2.65 0 0 1 1.11.628.5.5 0 0 0 .748-.069l2.436-3.344a.5.5 0 0 0-.808-.589l-2.127 2.92a3.7 3.7 0 0 0-1.092-.51 3.7 3.7 0 0 0-.975-.133 3.7 3.7 0 0 0-.782.085 3.65 3.65 0 0 0-2.603 2.208 3.7 3.7 0 0 0-.26 1.353l.003.165a4 4 0 0 0 .017.225" fill-rule="evenodd"/><path d="M28.144 6.22a92 92 0 0 0 3.65-5.178.5.5 0 0 0-.837-.548 91 91 0 0 1-3.61 5.124h-.001a47 47 0 0 1-3.52 4.149l-.002.002a22.3 22.3 0 0 1-3.56 3.057l-.007.004a9.9 9.9 0 0 1-4.387 1.742 8 8 0 0 1-.862.049l-.135-.001h-.015a7.56 7.56 0 0 1-4.718-1.583 6.58 6.58 0 0 1-2.348-5.21v-.042a6.8 6.8 0 0 1 1.03-3.593 6.8 6.8 0 0 1 2.8-2.515A6.8 6.8 0 0 1 14.577 1a7 7 0 0 1 .386.011 7 7 0 0 1 .37.031 6.8 6.8 0 0 1 3.477 1.44.5.5 0 1 0 .623-.782 7.8 7.8 0 0 0-3.99-1.652 8 8 0 0 0-.423-.035A8 8 0 0 0 14.577 0a7.785 7.785 0 0 0-7.785 7.785v.024a7.58 7.58 0 0 0 2.713 6l.014.012a8.56 8.56 0 0 0 5.344 1.799h.145a9 9 0 0 0 .98-.055l.012-.002a10.9 10.9 0 0 0 4.834-1.916 23.3 23.3 0 0 0 3.717-3.191 48 48 0 0 0 3.593-4.235M.178 1.205l3.693 6.15a.5.5 0 0 0 .928-.254 9.1 9.1 0 0 1 2.796-6.014.5.5 0 0 0-.348-.861L.525.269a.5.5 0 0 0-.453.758zm5.917.028-4.713.031 2.613 4.335a10.1 10.1 0 0 1 2.1-4.366" fill-rule="evenodd"/></symbol><use xlink:href="#sprite-b-post" width="32" height="16" y="25"/><view id="sprite-b-post-view" viewBox="0 25 32 16"/><symbol fill="currentColor" id="sprite-cart" viewBox="0 0 18 18"><path d="M6.188 15.75a1.125 1.125 0 1 0 0-2.25 1.125 1.125 0 0 0 0 2.25"/><path d="M14.063 15.75a1.125 1.125 0 1 0 0-2.25 1.125 1.125 0 0 0 0 2.25"/><path d="M15.81 4.615a.9.9 0 0 0-.29-.299.67.67 0 0 0-.357-.105H4.553l-.215-1.602a.8.8 0 0 0-.19-.437A.5.5 0 0 0 3.789 2H1.558a.5.5 0 0 0-.395.216.87.87 0 0 0-.163.52c0 .196.059.384.163.522a.5.5 0 0 0 .395.216H3.32L4.913 15.39c.023.17.09.325.19.437a.5.5 0 0 0 .36.172h8.924a.5.5 0 0 0 .395-.216.87.87 0 0 0 .163-.52.87.87 0 0 0-.163-.522.5.5 0 0 0-.395-.216H5.93l-.196-1.473h8.425a.73.73 0 0 0 .53-.251c.15-.162.252-.387.29-.638l1.005-6.631c.024-.16.021-.326-.01-.485a1.3 1.3 0 0 0-.164-.433"/></symbol><use xlink:href="#sprite-cart" width="18" height="18" y="41"/><view id="sprite-cart-view" viewBox="0 41 18 18"/><symbol fill="currentColor" id="sprite-chevron" viewBox="0 0 67 128"><path d="m0 125.011 60.608-61.585L.011 2.829A2 2 0 0 1 2.84 0l62 62a2 2 0 0 1 .011 2.817l-62 63A2 2 0 0 1 0 125.01"/></symbol><use xlink:href="#sprite-chevron" width="67" height="128" y="59"/><view id="sprite-chevron-view" viewBox="0 59 67 128"/><symbol fill="currentColor" id="sprite-cross" viewBox="0 0 37 39"><path d="M2.542.002 0 2.7l15.513 16.463L0 35.627l2.543 2.698 15.509-16.468 15.51 16.466 2.54-2.696L20.59 19.163 36.102 2.698 33.56 0 18.052 16.468z"/></symbol><use xlink:href="#sprite-cross" width="37" height="39" y="187"/><view id="sprite-cross-view" viewBox="0 187 37 39"/><symbol fill="currentColor" id="sprite-filter" viewBox="0 0 32 32"><path d="M28 9H11a1 1 0 0 1 0-2h17a1 1 0 0 1 0 2"/><path d="M7 9H4a1 1 0 0 1 0-2h3a1 1 0 0 1 0 2"/><path d="M21 17H4a1 1 0 0 1 0-2h17a1 1 0 0 1 0 2"/><path d="M11 25H4a1 1 0 0 1 0-2h7a1 1 0 0 1 0 2"/><path d="M9 11a3 3 0 1 1 3-3 3 3 0 0 1-3 3m0-4a1 1 0 1 0 1 1 1 1 0 0 0-1-1"/><path d="M23 19a3 3 0 1 1 3-3 3 3 0 0 1-3 3m0-4a1 1 0 1 0 1 1 1 1 0 0 0-1-1"/><path d="M13 27a3 3 0 1 1 3-3 3 3 0 0 1-3 3m0-4a1 1 0 1 0 1 1 1 1 0 0 0-1-1"/><path d="M28 17h-3a1 1 0 0 1 0-2h3a1 1 0 0 1 0 2"/><path d="M28 25H15a1 1 0 0 1 0-2h13a1 1 0 0 1 0 2"/></symbol><use xlink:href="#sprite-filter" width="32" height="32" y="226"/><view id="sprite-filter-view" viewBox="0 226 32 32"/><symbol fill="currentColor" id="sprite-p-master-cart" viewBox="0 0 30 19"><path d="M1.396 0C.626 0 0 .625 0 1.396v16.048c0 .771.625 1.396 1.396 1.396h27.208c.77 0 1.396-.625 1.396-1.396V1.396C30 .625 29.375 0 28.604 0zm8.441 2.268c1.713 0 3.285.596 4.52 1.59a7.4 7.4 0 0 0-2.196 3.535h.6a6.9 6.9 0 0 1 1.838-2.964 6.9 6.9 0 0 1 1.838 2.964h.609a7.4 7.4 0 0 0-2.202-3.514 7.186 7.186 0 0 1 11.721 5.575 7.186 7.186 0 0 1-11.782 5.525 7.4 7.4 0 0 0 2.311-3.748h-.586a6.9 6.9 0 0 1-1.91 3.208 6.9 6.9 0 0 1-1.908-3.208h-.558a7.4 7.4 0 0 0 2.287 3.7 7.18 7.18 0 0 1-4.582 1.641c-3.969 0-7.186-3.202-7.186-7.152s3.217-7.152 7.186-7.152m9.004 5.052c-.864 0-1.704.755-1.704 2.172 0 .94.454 1.56 1.347 1.56.252 0 .654-.103.654-.103l.133-.821s-.367.185-.619.185c-.53 0-.743-.408-.743-.846 0-.89.457-1.38.965-1.38.38 0 .687.216.687.216l.122-.798s-.453-.185-.842-.185m7.259.07-.75.001-.162.988s-.282-.383-.724-.383c-.686 0-1.258.815-1.258 1.753 0 .605.304 1.2.928 1.2.449 0 .698-.31.698-.31l-.033.264h.73zM4.592 7.4l-.598 3.522h.72l.456-2.656.068 2.656h.515l.962-2.656-.426 2.656h.766l.59-3.522H6.46l-.737 2.16-.039-2.16zm7.532.228c-.017.017-.436 2.437-.436 2.731 0 .437.244.632.589.629.246-.003.437-.064.526-.09l.027-.008.092-.63c-.05 0-.124.022-.19.022-.257 0-.285-.137-.269-.239l.207-1.285h.391l.095-.696h-.369l.075-.434zm8.714.355a2.5 2.5 0 0 0-.889.166l-.107.647s.319-.133.8-.133c.273 0 .473.032.473.26 0 .137-.024.189-.024.189s-.216-.02-.316-.02c-.635 0-1.301.279-1.301 1.115 0 .66.437.81.709.81.517 0 .74-.343.752-.344l-.024.286h.646l.289-2.07c0-.878-.748-.906-1.008-.906M8.72 7.987c-.505 0-.893.166-.893.166l-.107.646s.32-.132.803-.132c.274 0 .475.032.475.259 0 .138-.024.19-.024.19s-.217-.02-.317-.02c-.637 0-1.306.278-1.306 1.114 0 .66.438.81.71.81.52 0 .744-.344.756-.345l-.024.287h.649l.29-2.069c0-.878-.752-.906-1.012-.906m2.29 0c-.541 0-1.092.219-1.092.966 0 .847.918.762.918 1.119 0 .238-.257.257-.454.257-.342 0-.65-.118-.65-.112l-.1.647c.018.005.209.09.824.09.165 0 1.109.043 1.109-.94 0-.92-.874-.738-.874-1.107 0-.184.142-.242.402-.242.104 0 .502.033.502.033l.092-.653s-.257-.058-.676-.058m3.39 0c-.753 0-1.31.81-1.31 1.726 0 1.056.698 1.307 1.294 1.307.55 0 .792-.122.792-.122l.131-.721s-.418.183-.796.183c-.804 0-.663-.599-.663-.599h1.523s.099-.484.099-.681c0-.493-.246-1.093-1.07-1.093m2.73.03c-.34 0-.592.457-.592.457l.068-.419h-.705l-.473 2.893h.778c.221-1.235.261-2.238.788-2.055.092-.478.182-.663.282-.865 0 0-.047-.01-.146-.01m6.312 0c-.34 0-.591.457-.591.457l.067-.419h-.705l-.473 2.893h.778c.22-1.235.262-2.238.788-2.055.093-.478.182-.663.282-.865 0 0-.047-.01-.146-.01m-9.045.622c.428 0 .35.483.35.522h-.843c0-.05.08-.522.493-.522m10.184.056c.273 0 .413.184.413.617 0 .393-.198.918-.609.918-.272 0-.4-.225-.4-.577 0-.577.264-.958.596-.958m-3.743.985c.11 0 .134.01.153.016-.003 0-.004 0 .007.002.014.128-.078.733-.522.733-.23 0-.288-.182-.288-.29 0-.21.11-.461.65-.461m-12.117.003c.126 0 .14.014.16.017.015.13-.077.732-.523.732-.23 0-.29-.18-.29-.288 0-.21.11-.461.653-.461"/></symbol><use xlink:href="#sprite-p-master-cart" width="30" height="19" y="258"/><view id="sprite-p-master-cart-view" viewBox="0 258 30 19"/><symbol fill="currentColor" id="sprite-p-pay-pal" viewBox="0 0 29 19"><path d="M27.067 19H1.933a1.95 1.95 0 0 1-1.367-.556A1.88 1.88 0 0 1 0 17.1V1.9C0 1.396.204.913.566.556A1.95 1.95 0 0 1 1.933 0h25.134c.512 0 1.004.2 1.367.556.362.357.566.84.566 1.344v15.2c0 .504-.204.987-.566 1.343a1.95 1.95 0 0 1-1.367.557M11.304 8.174a.15.15 0 0 0-.115.055.17.17 0 0 0-.05.12c0 .016.078.252.248.738l.365 1.05.17.489q.285.823.3.875-.565.686-1.015 1.447l-.03.056-.002.02c0 .079.065.144.146.144l.022-.002h.98a.27.27 0 0 0 .228-.126h.001L15.8 8.433a.13.13 0 0 0 .027-.077l-.001-.012v.001a.18.18 0 0 0-.05-.119.15.15 0 0 0-.114-.055h-.982a.28.28 0 0 0-.23.126l-1.353 1.953-.56-1.878a.26.26 0 0 0-.095-.145.27.27 0 0 0-.165-.056h-.021zm11.26-.088h-.021c-.61 0-1.16.26-1.538.674l-.002.001a2.23 2.23 0 0 0-.644 1.57v.02q-.002.035-.002.078c0 .425.169.812.442 1.1v-.002a1.6 1.6 0 0 0 1.182.439h-.004a2 2 0 0 0 .765-.156l-.013.005a1.5 1.5 0 0 0 .598-.4h.001a1 1 0 0 1-.027.119l.001-.008a.7.7 0 0 0-.026.149v.001q0 .2.166.2h.88a.26.26 0 0 0 .19-.06.25.25 0 0 0 .09-.176l.522-3.268a.16.16 0 0 0-.038-.14.16.16 0 0 0-.127-.064h-.969c-.118 0-.193.139-.217.414a1.33 1.33 0 0 0-.541-.406 1.36 1.36 0 0 0-.675-.09l.007-.002zm-14.47 0H8.07c-.61 0-1.159.26-1.536.674l-.001.001a2.24 2.24 0 0 0-.645 1.57v.02a1.58 1.58 0 0 0 .442 1.176c.284.272.674.44 1.104.44l.078-.002h-.004a2 2 0 0 0 .752-.156l-.013.005q.363-.137.61-.4h.002a.8.8 0 0 0-.051.26v.002q0 .2.166.2h.878a.26.26 0 0 0 .19-.06.25.25 0 0 0 .09-.176l.523-3.268a.17.17 0 0 0-.039-.139.16.16 0 0 0-.126-.063h-.97c-.118 0-.193.139-.216.413a1.36 1.36 0 0 0-.543-.403 1.4 1.4 0 0 0-.673-.094zM26.27 6.333h-.013a.15.15 0 0 0-.104.039.15.15 0 0 0-.05.098v.001l-.827 5.208a.15.15 0 0 0 .038.143.16.16 0 0 0 .124.056h.846l.025.002a.24.24 0 0 0 .171-.07.24.24 0 0 0 .07-.168v-.001l.827-5.118.001-.018a.2.2 0 0 0-.043-.125.16.16 0 0 0-.112-.047zm-9.401 0a.25.25 0 0 0-.194.057.24.24 0 0 0-.086.18l-.828 5.108a.17.17 0 0 0 .038.138.15.15 0 0 0 .126.063h1.051a.2.2 0 0 0 .13-.046.2.2 0 0 0 .07-.116v-.001l.23-1.452a.24.24 0 0 1 .089-.162.4.4 0 0 1 .192-.082h.002q.1-.018.217-.019.102 0 .242.013.153.017.308.016a2.36 2.36 0 0 0 1.592-.612l-.002.001a2.23 2.23 0 0 0 .624-1.69v.006a1.2 1.2 0 0 0-.104-.596 1.2 1.2 0 0 0-.384-.472l-.003-.003a2.23 2.23 0 0 0-1.289-.331h.005zm-14.486 0a.25.25 0 0 0-.187.06.24.24 0 0 0-.08.176v.002l-.828 5.108a.17.17 0 0 0 .038.137.15.15 0 0 0 .125.064h.97a.25.25 0 0 0 .194-.057.24.24 0 0 0 .087-.18l.23-1.377a.25.25 0 0 1 .088-.162.4.4 0 0 1 .192-.081h.002a1.3 1.3 0 0 1 .216-.02q.102 0 .242.013.153.018.307.016c.615 0 1.174-.232 1.593-.612l-.002.002a2.23 2.23 0 0 0 .624-1.69v.006a1.2 1.2 0 0 0-.104-.596 1.2 1.2 0 0 0-.384-.473l-.003-.002a2.23 2.23 0 0 0-1.283-.333h.005zm20.126 4.62h-.038a.88.88 0 0 1-.562-.201h.001a.7.7 0 0 1-.23-.517v-.056c0-.297.122-.565.32-.76.194-.195.464-.316.764-.316h.027-.002l.027-.001a.87.87 0 0 1 .566.207.73.73 0 0 1 .236.533v.038-.002.02c0 .292-.124.556-.323.744a1.08 1.08 0 0 1-.765.31h-.02.001zm-14.483 0h-.04a.85.85 0 0 1-.553-.201.7.7 0 0 1-.223-.515v-.058c0-.297.122-.565.32-.76a1.07 1.07 0 0 1 .763-.316h.028-.001l.027-.001c.217 0 .414.078.565.207a.73.73 0 0 1 .236.532l-.001.039v-.002.028c0 .292-.123.555-.322.743a1.12 1.12 0 0 1-.769.304h-.029.002zm9.592-2.027.217-1.339a.15.15 0 0 1 .054-.102.15.15 0 0 1 .112-.035H18h.279q.21 0 .411.027l-.015-.001a.63.63 0 0 1 .319.156.48.48 0 0 1 .154.352v.03-.002a.8.8 0 0 1-.28.714c-.257.145-.552.21-.846.19h.005l-.407.013zm-14.483 0 .217-1.339a.15.15 0 0 1 .054-.102.15.15 0 0 1 .112-.035h-.001.242c.257-.018.516.033.746.148l-.008-.004q.229.144.153.606a.7.7 0 0 1-.328.575l-.003.001c-.382.139-.79.19-1.195.15z"/></symbol><use xlink:href="#sprite-p-pay-pal" width="29" height="19" y="277"/><view id="sprite-p-pay-pal-view" viewBox="0 277 29 19"/><symbol fill="currentColor" id="sprite-p-visa" viewBox="0 0 30 19"><path d="M1.2 0A1.2 1.2 0 0 0 0 1.2v16.44a1.2 1.2 0 0 0 1.2 1.2h27.6a1.2 1.2 0 0 0 1.2-1.2V1.2A1.2 1.2 0 0 0 28.8 0zm16.718 5.615a4.6 4.6 0 0 1 1.688.31L19.35 7.53l-.169-.085a3.3 3.3 0 0 0-1.41-.284c-.737 0-1.078.329-1.078.636-.004.347.398.576 1.057.918 1.086.528 1.588 1.169 1.581 2.01-.014 1.537-1.3 2.53-3.28 2.53-.844-.009-1.657-.188-2.097-.394l.264-1.658.243.118c.618.277 1.019.388 1.773.388.541 0 1.122-.226 1.127-.722.003-.324-.243-.555-.976-.918-.715-.354-1.662-.948-1.651-2.011.01-1.439 1.322-2.443 3.183-2.443M2.653 5.85h3.04c.41.015.74.147.855.592l.655 3.382v.002l.197 1.013L9.246 5.85h1.996l-2.968 7.303-1.995.002-1.588-5.893c.945.5 1.75 1.08 2.216 1.877a5.3 5.3 0 0 0-.481-.818c-.236-.327-.746-.748-.958-.928-.742-.625-1.75-1.13-2.838-1.398zm9.384.008h1.952l-1.221 7.292h-1.953zm11.03 0h1.479l1.548 7.292H24.32s-.176-.837-.234-1.093l-2.45-.003c-.075.198-.403 1.096-.403 1.096h-2.01l2.842-6.686c.201-.475.544-.606 1.002-.606m.145 1.962c-.096.27-.264.709-.253.69 0 0-.6 1.603-.758 2.02l1.58-.002-.441-2.086z"/></symbol><use xlink:href="#sprite-p-visa" width="30" height="19" y="296"/><view id="sprite-p-visa-view" viewBox="0 296 30 19"/><symbol fill="currentColor" id="sprite-play" viewBox="0 0 20 24"><path d="m0 0 20 12L0 24z"/></symbol><use xlink:href="#sprite-play" width="20" height="24" y="315"/><view id="sprite-play-view" viewBox="0 315 20 24"/><symbol fill="currentColor" id="sprite-quite" viewBox="0 0 91 65"><path d="M6.5 65H26l13-26V0H0v39h19.5zm52 0H78l13-26V0H52v39h19.5z"/></symbol><use xlink:href="#sprite-quite" width="91" height="65" y="339"/><view id="sprite-quite-view" viewBox="0 339 91 65"/><symbol fill="currentColor" id="sprite-s-facebook" viewBox="0 0 12 21"><path d="M9.003 0C5.85 0 4 1.562 4 5.12v3.13H0V12h4v9h4v-9h3.2l.8-3.75H8V5.754c0-1.34.466-2.004 1.808-2.004H12V.154C11.62.106 10.516 0 9.003 0"/></symbol><use xlink:href="#sprite-s-facebook" width="12" height="21" y="404"/><view id="sprite-s-facebook-view" viewBox="0 404 12 21"/><symbol fill="currentColor" id="sprite-s-instagram" viewBox="0 0 18 19"><path d="M5.293 0C2.387 0 0 2.517 0 5.587v7.826C0 16.48 2.384 19 5.293 19h7.414C15.613 19 18 16.483 18 13.413V5.588C18 2.52 15.616 0 12.707 0zm0 1.727h7.414c.48 0 .956.099 1.4.293s.848.478 1.187.836c.34.359.61.784.793 1.253s.277.97.277 1.478v7.826a4 4 0 0 1-.277 1.478 3.9 3.9 0 0 1-.793 1.253c-.34.358-.743.643-1.187.836-.444.194-.92.293-1.4.293H5.294c-.48 0-.957-.099-1.4-.292a3.65 3.65 0 0 1-1.188-.837 3.9 3.9 0 0 1-.793-1.253 4 4 0 0 1-.277-1.478V5.588c0-.507.094-1.01.277-1.478.184-.469.453-.895.793-1.254.34-.358.743-.642 1.187-.836s.92-.293 1.4-.293m8.54 1.89a.7.7 0 0 0-.526.228.82.82 0 0 0-.216.554c0 .436.329.783.741.783a.7.7 0 0 0 .526-.228.8.8 0 0 0 .216-.555.82.82 0 0 0-.216-.554.7.7 0 0 0-.526-.228M9 4.318c-2.7 0-4.91 2.332-4.91 5.182S6.3 14.682 9 14.682s4.91-2.332 4.91-5.182S11.7 4.318 9 4.318m0 1.727c1.819 0 3.273 1.535 3.273 3.455S10.819 12.954 9 12.954 5.727 11.42 5.727 9.5 7.181 6.045 9 6.045"/></symbol><use xlink:href="#sprite-s-instagram" width="18" height="19" y="425"/><view id="sprite-s-instagram-view" viewBox="0 425 18 19"/><symbol fill="currentColor" id="sprite-s-linkedin" viewBox="0 0 18 19"><path d="M2.265 0A2.25 2.25 0 0 0 .664.667 2.28 2.28 0 0 0 0 2.28c0 1.26 1.014 2.306 2.263 2.306 1.25 0 2.265-1.045 2.265-2.304A2.3 2.3 0 0 0 3.866.668 2.26 2.26 0 0 0 2.266 0m11.05 6.045c-1.901 0-2.989 1.002-3.512 1.999h-.055v-1.73H6V19h3.906v-6.28c0-1.654.123-3.254 2.156-3.254 2.003 0 2.032 1.887 2.032 3.359V19H18v-6.968c0-3.41-.728-5.987-4.684-5.987M.312 6.313V19H4.22V6.313z"/></symbol><use xlink:href="#sprite-s-linkedin" width="18" height="19" y="444"/><view id="sprite-s-linkedin-view" viewBox="0 444 18 19"/><symbol fill="currentColor" id="sprite-s-twitter" viewBox="0 0 18 15"><path d="M18 1.78a7.2 7.2 0 0 1-2.121.594A3.78 3.78 0 0 0 17.502.28a7.3 7.3 0 0 1-2.344.92A3.67 3.67 0 0 0 13.272.092a3.6 3.6 0 0 0-2.168.173c-.69.28-1.28.765-1.697 1.393a3.85 3.85 0 0 0-.541 2.992 10.3 10.3 0 0 1-4.218-1.146A10.5 10.5 0 0 1 1.253.694a3.83 3.83 0 0 0-.5 1.905c0 1.312.65 2.472 1.643 3.15a3.6 3.6 0 0 1-1.673-.474v.048c0 .874.294 1.722.834 2.399a3.68 3.68 0 0 0 2.129 1.313 3.6 3.6 0 0 1-1.668.066c.235.752.694 1.41 1.313 1.882a3.64 3.64 0 0 0 2.135.75 7.3 7.3 0 0 1-2.581 1.34A7.2 7.2 0 0 1 0 13.297 10.26 10.26 0 0 0 5.66 15c6.794 0 10.51-5.77 10.51-10.773q-.002-.245-.013-.49A7.7 7.7 0 0 0 18 1.78"/></symbol><use xlink:href="#sprite-s-twitter" width="18" height="15" y="463"/><view id="sprite-s-twitter-view" viewBox="0 463 18 15"/><symbol fill="currentColor" id="sprite-s-youtube" viewBox="0 0 22 15"><path d="M21.536 2.342a2.66 2.66 0 0 0-.711-1.198 2.77 2.77 0 0 0-1.23-.692C17.883 0 11 0 11 0S4.118 0 2.405.452c-.465.121-.89.36-1.23.692s-.586.745-.71 1.198A27 27 0 0 0 0 7.5c-.012 1.73.143 3.457.463 5.158.125.453.37.866.711 1.198s.765.57 1.23.693C4.118 15 11 15 11 15s6.883 0 8.595-.451a2.77 2.77 0 0 0 1.23-.693c.34-.332.586-.745.71-1.198.32-1.701.476-3.428.464-5.158a27 27 0 0 0-.463-5.158M8.8 10.714V4.286L14.512 7.5z"/></symbol><use xlink:href="#sprite-s-youtube" width="22" height="15" y="478"/><view id="sprite-s-youtube-view" viewBox="0 478 22 15"/><symbol fill="currentColor" id="sprite-search" viewBox="0 0 15 15"><path d="M14.368 13.127 11.06 9.819a6.1 6.1 0 0 0 1.225-3.677A6.15 6.15 0 0 0 6.143 0 6.15 6.15 0 0 0 0 6.143a6.15 6.15 0 0 0 6.143 6.142 6.1 6.1 0 0 0 3.676-1.225l3.308 3.308a.879.879 0 0 0 1.241-1.241M1.755 6.142a4.387 4.387 0 1 1 8.775 0 4.387 4.387 0 0 1-8.775 0"/></symbol><use xlink:href="#sprite-search" width="15" height="15" y="493"/><view id="sprite-search-view" viewBox="0 493 15 15"/><symbol fill="currentColor" id="sprite-star" viewBox="0 0 16 15"><path d="M12.55 14.876a.53.53 0 0 1-.312-.1l-4.27-3.096-4.27 3.096a.531.531 0 0 1-.816-.6l1.665-4.933-4.316-2.96a.531.531 0 0 1 .299-.97h5.325L7.462.367a.531.531 0 0 1 1.01 0l1.608 4.948h5.325a.531.531 0 0 1 .3.97l-4.318 2.958 1.665 4.931a.53.53 0 0 1-.503.702"/></symbol><use xlink:href="#sprite-star" width="16" height="15" y="508"/><view id="sprite-star-view" viewBox="0 508 16 15"/></svg>